<svg width="108" height="22" viewBox="0 0 108 22" fill="none" xmlns="http://www.w3.org/2000/svg">
<path d="M0.25 2.03101H4.05693V17.3964H0.25V2.03101ZM5.56701 11.5948C5.56701 7.79463 7.90192 5.52718 11.5058 5.52718C15.1097 5.52718 17.4446 7.79463 17.4446 11.5948C17.4446 15.395 15.1605 17.6751 11.5058 17.6751C7.85116 17.6751 5.56701 15.4583 5.56701 11.5948ZM13.625 11.5948C13.625 9.50471 12.8002 8.27598 11.5058 8.27598C10.2115 8.27598 9.39932 9.54271 9.39932 11.5948C9.39932 13.6469 10.1988 14.8883 11.5058 14.8883C12.8129 14.8883 13.625 13.7229 13.625 11.6075V11.5948ZM18.8786 18.1438H22.5332C22.7071 18.5295 23.0012 18.8489 23.3716 19.0543C23.742 19.2597 24.169 19.3402 24.589 19.2839C26.0356 19.2839 26.797 18.4985 26.797 17.3584V15.2303H26.7208C26.4175 15.8826 25.9253 16.4291 25.3078 16.7994C24.6903 17.1697 23.9758 17.3468 23.2565 17.3078C20.4775 17.3078 18.6375 15.1923 18.6375 11.5568C18.6375 7.9213 20.3886 5.62852 23.3073 5.62852C24.0491 5.59949 24.7821 5.79747 25.4081 6.19593C26.0341 6.59439 26.5231 7.1743 26.8097 7.85796V5.74253H30.6166V17.2698C30.6166 20.0439 28.1675 21.7667 24.5509 21.7667C21.1881 21.7667 19.0943 20.2592 18.8786 18.1565V18.1438ZM26.8097 11.5821C26.8097 9.73272 25.9594 8.56733 24.6143 8.56733C23.2692 8.56733 22.4444 9.72006 22.4444 11.5821C22.4444 13.4442 23.2565 14.4956 24.6143 14.4956C25.9721 14.4956 26.8097 13.4696 26.8097 11.5948V11.5821ZM32.0505 11.5821C32.0505 7.78196 34.3854 5.51451 37.9893 5.51451C41.5932 5.51451 43.9408 7.78196 43.9408 11.5821C43.9408 15.3823 41.6567 17.6624 37.9893 17.6624C34.322 17.6624 32.0505 15.4583 32.0505 11.5948V11.5821ZM40.1085 11.5821C40.1085 9.49205 39.2837 8.26332 37.9893 8.26332C36.695 8.26332 35.9463 9.54272 35.9463 11.6075C35.9463 13.6723 36.7457 14.901 38.0401 14.901C39.3345 14.901 40.1085 13.7229 40.1085 11.6075V11.5821ZM45.3875 2.98106C45.3775 2.59737 45.4819 2.21937 45.6874 1.89497C45.8928 1.57057 46.1902 1.31437 46.5417 1.15887C46.8933 1.00337 47.2831 0.955554 47.6619 1.02149C48.0407 1.08743 48.3913 1.26415 48.6694 1.52925C48.9474 1.79435 49.1403 2.13589 49.2237 2.51057C49.3071 2.88526 49.2771 3.27621 49.1376 3.63388C48.9981 3.99155 48.7554 4.29982 48.4402 4.51961C48.125 4.7394 47.7515 4.86083 47.3671 4.86848C47.1122 4.88596 46.8565 4.85064 46.616 4.76476C46.3755 4.67887 46.1554 4.54426 45.9695 4.3694C45.7836 4.19453 45.6359 3.98318 45.5358 3.74862C45.4356 3.51406 45.3851 3.26136 45.3875 3.00639V2.98106ZM45.3875 5.76786H49.1944V17.3964H45.3875V5.76786ZM63.0135 11.5821C63.0135 15.3823 61.3258 17.5484 58.4325 17.5484C57.6906 17.596 56.952 17.4149 56.3165 17.0298C55.6811 16.6447 55.1794 16.074 54.8794 15.395H54.8033V21.1206H50.9963V5.74253H54.8033V7.81996H54.8794C55.1655 7.12974 55.6576 6.54423 56.2888 6.14306C56.92 5.74189 57.6596 5.54454 58.4072 5.57785C61.3258 5.62852 63.0643 7.8073 63.0643 11.6075L63.0135 11.5821ZM59.2066 11.5821C59.2066 9.73272 58.3564 8.55467 57.024 8.55467C55.6916 8.55467 54.8413 9.74539 54.8286 11.5821C54.816 13.4189 55.6916 14.597 57.024 14.597C58.3564 14.597 59.2066 13.4442 59.2066 11.6075V11.5821ZM69.5488 5.50185C72.7085 5.50185 74.6247 6.99659 74.7135 9.39071H71.2492C71.2492 8.56733 70.5639 8.04797 69.5107 8.04797C68.4574 8.04797 67.9879 8.45333 67.9879 9.04869C67.9879 9.64405 68.4067 9.83406 69.2569 10.0114L71.6933 10.5054C74.0156 10.9994 75.0054 11.9368 75.0054 13.6976C75.0054 16.1044 72.81 17.6498 69.5741 17.6498C66.3383 17.6498 64.2191 16.1044 64.0541 13.7356H67.7214C67.8356 14.597 68.5209 15.1037 69.6376 15.1037C70.7543 15.1037 71.2619 14.7363 71.2619 14.1283C71.2619 13.5202 70.9066 13.3936 69.9929 13.2036L67.7976 12.7349C65.5261 12.2662 64.3333 11.0628 64.3333 9.28937C64.3587 7.00925 66.4017 5.52718 69.5488 5.52718V5.50185ZM87.7078 17.3711H84.0405V15.205H83.9643C83.7628 15.9323 83.318 16.5688 82.704 17.0089C82.09 17.449 81.3436 17.6662 80.5889 17.6244C80.0105 17.6573 79.4318 17.5658 78.8918 17.3562C78.3519 17.1466 77.8633 16.8237 77.4592 16.4094C77.055 15.9951 76.7446 15.4991 76.5489 14.9547C76.3533 14.4104 76.2769 13.8305 76.3251 13.2542V5.74253H80.132V12.3802C80.132 13.7609 80.8427 14.4956 82.0228 14.4956C82.2995 14.4962 82.5732 14.4377 82.8254 14.3241C83.0777 14.2104 83.3027 14.0443 83.4853 13.8368C83.668 13.6292 83.8041 13.3851 83.8845 13.1208C83.9649 12.8565 83.9878 12.5781 83.9516 12.3042V5.74253H87.7586L87.7078 17.3711ZM89.5478 5.74253H93.2279V7.98464H93.304C93.506 7.26701 93.9407 6.63651 94.54 6.19183C95.1393 5.74715 95.8694 5.51341 96.616 5.52718C97.3756 5.46646 98.1302 5.69339 98.7298 6.16282C99.3294 6.63225 99.73 7.30978 99.8519 8.06064H99.928C100.158 7.3018 100.635 6.64098 101.283 6.1823C101.931 5.72362 102.713 5.49315 103.507 5.52718C104.024 5.50982 104.54 5.60138 105.02 5.79592C105.5 5.99046 105.933 6.28362 106.292 6.65636C106.651 7.0291 106.928 7.47307 107.104 7.95943C107.28 8.44579 107.351 8.96366 107.313 9.47938V17.3964H103.507V10.4928C103.507 9.22603 102.936 8.64334 101.87 8.64334C101.632 8.64133 101.397 8.69023 101.179 8.78675C100.962 8.88327 100.768 9.02516 100.611 9.20285C100.453 9.38053 100.336 9.58988 100.266 9.81677C100.196 10.0437 100.176 10.2828 100.207 10.5181V17.3964H96.5906V10.4421C96.5906 9.2767 96.0196 8.64334 94.979 8.64334C94.7387 8.64341 94.501 8.69436 94.2818 8.79284C94.0625 8.89132 93.8667 9.03507 93.7072 9.21463C93.5478 9.39418 93.4282 9.60546 93.3565 9.83451C93.2848 10.0636 93.2626 10.3052 93.2913 10.5434V17.3964H89.4844L89.5478 5.74253Z" fill="#1E1B1B"/>
</svg>
