<svg width="125" height="25" viewBox="0 0 125 25" fill="none" xmlns="http://www.w3.org/2000/svg">
<path d="M0.60791 0.971924H4.35664V19.28H0.60791V0.971924Z" fill="#1E1B1B"/>
<path d="M6.47967 13.0108C6.47442 11.6951 6.85838 10.4075 7.5829 9.31095C8.30743 8.21444 9.33992 7.35839 10.5496 6.85125C11.7593 6.34411 13.0917 6.20869 14.3782 6.46213C15.6646 6.71558 16.8472 7.34649 17.776 8.27496C18.7049 9.20343 19.3383 10.3877 19.596 11.6777C19.8537 12.9677 19.7241 14.3055 19.2236 15.5215C18.7231 16.7376 17.8743 17.7772 16.7846 18.5087C15.6949 19.2402 14.4134 19.6307 13.1025 19.6307C12.2322 19.6407 11.3687 19.4764 10.5625 19.1476C9.75622 18.8188 9.02336 18.332 8.40674 17.7156C7.79012 17.0993 7.30211 16.3657 6.97123 15.5579C6.64035 14.7501 6.47324 13.8842 6.47967 13.0108ZM15.9765 13.0108C15.9609 12.4437 15.779 11.8938 15.4536 11.4298C15.1283 10.9659 14.6739 10.6085 14.1473 10.4023C13.6206 10.1961 13.0451 10.1503 12.4926 10.2706C11.9402 10.3909 11.4353 10.6719 11.0412 11.0786C10.647 11.4853 10.3811 11.9996 10.2765 12.5571C10.172 13.1147 10.2336 13.6908 10.4536 14.2134C10.6735 14.736 11.0421 15.182 11.5133 15.4955C11.9844 15.809 12.5372 15.9762 13.1025 15.9762C13.4896 15.9866 13.8747 15.9163 14.2334 15.7699C14.5922 15.6235 14.9168 15.404 15.1868 15.1254C15.4569 14.8468 15.6664 14.5151 15.8024 14.1511C15.9383 13.7872 15.9976 13.3989 15.9765 13.0108Z" fill="#1E1B1B"/>
<path d="M34.6658 6.74062V18.6479C34.6658 22.861 31.3917 24.642 28.0683 24.642C26.8981 24.7299 25.7265 24.4927 24.6818 23.9565C23.6372 23.4202 22.7598 22.6055 22.146 21.6019L25.3444 19.7461C25.6024 20.2693 26.0135 20.7009 26.5226 20.9832C27.0317 21.2655 27.6146 21.385 28.1932 21.3257C28.5631 21.3772 28.9397 21.3445 29.2952 21.2301C29.6507 21.1157 29.9761 20.9226 30.2472 20.665C30.5183 20.4074 30.7283 20.0919 30.8615 19.7419C30.9947 19.3918 31.0478 19.0162 31.0168 18.6428V17.4964C30.5778 18.0355 30.0191 18.4637 29.3854 18.7468C28.7517 19.03 28.0606 19.1601 27.3678 19.1267C25.7191 19.0745 24.1553 18.3806 23.0075 17.1917C21.8596 16.0028 21.2178 14.4124 21.2178 12.757C21.2178 11.1015 21.8596 9.51107 23.0075 8.32221C24.1553 7.13334 25.7191 6.43938 27.3678 6.3872C28.0606 6.35383 28.7517 6.48393 29.3854 6.76705C30.0191 7.05018 30.5778 7.47844 31.0168 8.01748V6.73808L34.6658 6.74062ZM31.0181 12.7589C31.0433 12.1525 30.8871 11.5525 30.5696 11.0361C30.2521 10.5196 29.7879 10.1103 29.2367 9.8608C28.6855 9.61133 28.0725 9.53313 27.4766 9.63624C26.8808 9.73936 26.3293 10.0191 25.8931 10.4394C25.457 10.8597 25.1562 11.4015 25.0294 11.9948C24.9027 12.5882 24.9557 13.206 25.1818 13.7688C25.4079 14.3317 25.7966 14.8137 26.298 15.153C26.7994 15.4922 27.3904 15.6731 27.9951 15.6723C28.3889 15.6999 28.7842 15.6444 29.1554 15.5094C29.5266 15.3743 29.8655 15.1628 30.1503 14.8883C30.4351 14.6139 30.6594 14.2826 30.8089 13.9158C30.9583 13.549 31.0296 13.1549 31.0181 12.7589Z" fill="#1E1B1B"/>
<path d="M36.7888 13.0108C36.7835 11.6951 37.1675 10.4075 37.892 9.31095C38.6165 8.21444 39.649 7.35839 40.8587 6.85125C42.0684 6.34411 43.4008 6.20869 44.6873 6.46213C45.9737 6.71558 47.1562 7.34649 48.0851 8.27496C49.014 9.20343 49.6474 10.3877 49.9051 11.6777C50.1628 12.9677 50.0332 14.3055 49.5327 15.5215C49.0322 16.7376 48.1834 17.7772 47.0937 18.5087C46.004 19.2402 44.7225 19.6307 43.4115 19.6307C42.5413 19.6407 41.6778 19.4764 40.8716 19.1476C40.0653 18.8188 39.3324 18.332 38.7158 17.7156C38.0992 17.0993 37.6112 16.3657 37.2803 15.5579C36.9494 14.7501 36.7823 13.8842 36.7888 13.0108ZM46.2856 13.0108C46.2699 12.4437 46.0881 11.8938 45.7627 11.4298C45.4374 10.9659 44.983 10.6085 44.4563 10.4023C43.9297 10.1961 43.3542 10.1503 42.8017 10.2706C42.2493 10.3909 41.7444 10.6719 41.3503 11.0786C40.9561 11.4853 40.6901 11.9996 40.5856 12.5571C40.4811 13.1147 40.5427 13.6908 40.7627 14.2134C40.9826 14.736 41.3512 15.182 41.8223 15.4955C42.2935 15.809 42.8462 15.9762 43.4115 15.9762C43.7987 15.9866 44.1838 15.9163 44.5425 15.7699C44.9013 15.6235 45.2259 15.404 45.4959 15.1254C45.766 14.8468 45.9755 14.5151 46.1114 14.1511C46.2473 13.7872 46.3066 13.3989 46.2856 13.0108Z" fill="#1E1B1B"/>
<path d="M51.7827 3.37987C51.7827 2.93342 51.9146 2.49699 52.1618 2.12578C52.4089 1.75457 52.7602 1.46524 53.1712 1.29439C53.5822 1.12354 54.0345 1.07883 54.4708 1.16593C54.9071 1.25303 55.3079 1.46802 55.6224 1.78371C55.937 2.0994 56.1512 2.50162 56.238 2.93949C56.3248 3.37737 56.2802 3.83124 56.11 4.24371C55.9398 4.65618 55.6515 5.00872 55.2816 5.25676C54.9117 5.50479 54.4768 5.63719 54.032 5.63719C53.4373 5.63125 52.8686 5.39152 52.448 4.96947C52.0275 4.54742 51.7886 3.97671 51.7827 3.37987ZM52.1614 6.7405H55.9114V19.2811H52.1563L52.1614 6.7405Z" fill="#1E1B1B"/>
<path d="M72.098 13.0108C72.1413 13.8396 72.021 14.6688 71.7439 15.4507C71.4667 16.2327 71.0383 16.9519 70.4833 17.5671C69.9282 18.1824 69.2574 18.6814 68.5095 19.0355C67.7616 19.3897 66.9513 19.5919 66.1253 19.6307C65.4306 19.6687 64.7362 19.5511 64.0923 19.2865C63.4485 19.0218 62.8715 18.6167 62.403 18.1005V24.2961H58.6543V6.74044H62.403V7.9185C62.8717 7.40266 63.4488 6.99787 64.0926 6.73343C64.7364 6.469 65.4307 6.35154 66.1253 6.38956C66.9515 6.42815 67.762 6.63034 68.51 6.98451C69.2581 7.33867 69.929 7.8378 70.4841 8.45318C71.0392 9.06856 71.4676 9.78804 71.7446 10.5702C72.0216 11.3524 72.1417 12.1818 72.098 13.0108ZM68.3493 13.0108C68.3346 12.4238 68.1478 11.8543 67.8122 11.3734C67.4766 10.8925 67.0072 10.5217 66.4626 10.3073C65.918 10.0928 65.3225 10.0444 64.7506 10.1679C64.1787 10.2915 63.6558 10.5816 63.2474 11.0019C62.839 11.4222 62.5632 11.9541 62.4545 12.531C62.3458 13.1079 62.409 13.7041 62.6363 14.245C62.8636 14.786 63.2449 15.2477 63.7323 15.5723C64.2198 15.8969 64.7918 16.07 65.3768 16.0699C65.7784 16.0878 66.1793 16.0204 66.5531 15.872C66.9269 15.7235 67.2652 15.4975 67.5459 15.2086C67.8266 14.9198 68.0432 14.5746 68.1817 14.1959C68.3201 13.8171 68.3772 13.4132 68.3493 13.0108Z" fill="#1E1B1B"/>
<path d="M83.6659 15.5178C83.6659 18.4021 81.168 19.6308 78.4694 19.6308C77.379 19.7299 76.2841 19.4985 75.3263 18.9665C74.3684 18.4344 73.5915 17.6263 73.0962 16.6464L76.3438 14.7907C76.4752 15.2436 76.7574 15.6376 77.1433 15.9068C77.5293 16.1761 77.9955 16.3044 78.4643 16.2702C79.363 16.2702 79.8136 15.994 79.8136 15.4937C79.8136 14.113 73.6654 14.8413 73.6654 10.5028C73.6654 7.76791 75.9652 6.38971 78.5641 6.38971C79.541 6.35868 80.5084 6.59124 81.3654 7.06313C82.2223 7.53502 82.9374 8.22897 83.4362 9.07264L80.2377 10.803C80.0975 10.4745 79.864 10.1947 79.5664 9.99853C79.2687 9.80233 78.9201 9.69839 78.5641 9.69967C77.914 9.69967 77.5139 9.95302 77.5139 10.4014C77.5189 11.8316 83.6659 10.8777 83.6659 15.5178Z" fill="#1E1B1B"/>
<path d="M97.3598 6.74072V19.2814H93.6111V18.102C93.1787 18.6224 92.6295 19.0324 92.0085 19.2984C91.3876 19.5644 90.7126 19.6788 90.0391 19.6322C87.5146 19.6322 85.3689 17.8271 85.3689 14.4386V6.74072H89.1176V13.8876C89.0863 14.1863 89.1201 14.4882 89.2169 14.7724C89.3136 15.0567 89.4709 15.3163 89.6777 15.5333C89.8846 15.7503 90.1361 15.9195 90.4148 16.0291C90.6934 16.1386 90.9925 16.1859 91.2912 16.1677C92.6657 16.1677 93.6149 15.3659 93.6149 13.5849V6.74453L97.3598 6.74072Z" fill="#1E1B1B"/>
<path d="M118.855 11.5808V19.28H115.106V11.9063C115.106 10.6523 114.507 9.85042 113.308 9.85042C112.058 9.85042 111.358 10.7283 111.358 12.2078V19.28H107.61V11.9063C107.61 10.6523 107.01 9.85042 105.81 9.85042C104.561 9.85042 103.861 10.7283 103.861 12.2078V19.28H100.113V6.73932H103.861V7.89205C104.25 7.38065 104.76 6.9751 105.345 6.71245C105.93 6.44979 106.571 6.3384 107.21 6.38844C107.851 6.35695 108.49 6.49279 109.064 6.78272C109.637 7.07265 110.126 7.50678 110.483 8.04279C110.898 7.48204 111.448 7.03616 112.082 6.74684C112.716 6.45752 113.412 6.33421 114.107 6.38844C116.976 6.38971 118.855 8.44561 118.855 11.5808Z" fill="#1E1B1B"/>
<path d="M122.026 6.66333C123.562 6.66333 124.807 5.41337 124.807 3.87146C124.807 2.32955 123.562 1.07959 122.026 1.07959C120.489 1.07959 119.244 2.32955 119.244 3.87146C119.244 5.41337 120.489 6.66333 122.026 6.66333Z" fill="#1E1B1B"/>
</svg>
