<svg width="35" height="30" viewBox="0 0 35 30" fill="none" xmlns="http://www.w3.org/2000/svg">
<path d="M0.517497 13.0294C1.4487 9.30886 3.60535 6.005 6.64404 3.64385C9.68274 1.28269 13.4288 0 17.2857 0C21.1426 0 24.8886 1.28269 27.9273 3.64385C30.966 6.005 33.1227 9.30886 34.0539 13.0294H32.5392C29.9842 12.992 27.4815 13.751 25.3826 15.1999C25.2615 15.2871 25.135 15.3667 25.004 15.4383H24.8273C24.6962 15.3667 24.5697 15.2871 24.4486 15.1999C22.3311 13.7845 19.8374 13.0286 17.2857 13.0286C14.734 13.0286 12.2402 13.7845 10.1228 15.1999C10.0016 15.2871 9.87517 15.3667 9.7441 15.4383H9.5674C9.43633 15.3667 9.30987 15.2871 9.18874 15.1999C7.08989 13.751 4.5872 12.992 2.03213 13.0294H0.517497ZM29.8129 20.8961C30.5904 20.2942 31.5541 19.9793 32.5392 20.0053H34.5714V15.9778H32.5392C30.804 15.957 29.1084 16.4938 27.7051 17.5085C26.9153 18.0873 25.9599 18.3995 24.9787 18.3995C23.9976 18.3995 23.0422 18.0873 22.2524 17.5085C20.8134 16.5128 19.1021 15.979 17.3488 15.979C15.5955 15.979 13.8842 16.5128 12.4452 17.5085C11.6554 18.0873 10.7 18.3995 9.71886 18.3995C8.73769 18.3995 7.78228 18.0873 6.99253 17.5085C5.57181 16.4809 3.85194 15.9433 2.09523 15.9778H0V20.0053H2.03213C3.01728 19.9793 3.98093 20.2942 4.75845 20.8961C6.19484 21.8925 7.9042 22.4268 9.65575 22.4268C11.4073 22.4268 13.1167 21.8925 14.553 20.8961C15.3316 20.2961 16.2945 19.9814 17.2794 20.0053C18.2648 19.9772 19.2292 20.2923 20.0057 20.8961C21.4447 21.8919 23.156 22.4256 24.9093 22.4256C26.6626 22.4256 28.3739 21.8919 29.8129 20.8961ZM29.8129 28.0979C30.5904 27.496 31.5541 27.1811 32.5392 27.2071H34.5714V23.1796H32.5392C30.804 23.1587 29.1084 23.6956 27.7051 24.7103C26.9153 25.2891 25.9599 25.6013 24.9787 25.6013C23.9976 25.6013 23.0422 25.2891 22.2524 24.7103C20.8134 23.7146 19.1021 23.1808 17.3488 23.1808C15.5955 23.1808 13.8842 23.7146 12.4452 24.7103C11.6554 25.2891 10.7 25.6013 9.71886 25.6013C8.73769 25.6013 7.78228 25.2891 6.99253 24.7103C5.57181 23.6826 3.85194 23.1451 2.09523 23.1796H0V27.2071H2.03213C3.01728 27.1811 3.98093 27.496 4.75845 28.0979C6.19484 29.0943 7.9042 29.6285 9.65575 29.6285C11.4073 29.6285 13.1167 29.0943 14.553 28.0979C15.3316 27.4978 16.2945 27.1832 17.2794 27.2071C18.2648 27.179 19.2292 27.4941 20.0057 28.0979C21.4447 29.0936 23.156 29.6274 24.9093 29.6274C26.6626 29.6274 28.3739 29.0936 29.8129 28.0979Z" fill="#1E1B1B"/>
</svg>
