<svg width="105" height="20" viewBox="0 0 105 20" fill="none" xmlns="http://www.w3.org/2000/svg">
<path d="M3.67725 15.0051C2.92651 15.0456 2.18395 14.8334 1.5694 14.4029C1.31259 14.2137 1.10599 13.9651 0.96745 13.6788C0.828907 13.3924 0.762589 13.0768 0.774219 12.7593V1.12854C0.768081 1.0793 0.773325 1.02931 0.78955 0.982387C0.805774 0.935464 0.832554 0.892836 0.867849 0.857751C0.903145 0.822666 0.946024 0.796046 0.993229 0.779918C1.04043 0.76379 1.09072 0.758582 1.14026 0.764684H3.26074C3.50055 0.764684 3.61415 0.890151 3.61415 1.12854V11.8559C3.61415 12.3327 3.82872 12.5711 4.27048 12.5711C4.45775 12.5788 4.64509 12.5576 4.82585 12.5083C5.07829 12.5083 5.21713 12.5836 5.22975 12.8095L5.41908 14.3778C5.42818 14.4235 5.42731 14.4707 5.41654 14.516C5.40577 14.5614 5.38534 14.6039 5.35663 14.6408C5.32793 14.6776 5.29161 14.7079 5.25013 14.7297C5.20865 14.7514 5.16296 14.764 5.11615 14.7667C4.65169 14.9192 4.16636 14.9997 3.67725 15.0051Z" fill="#1E1B1B"/>
<path d="M15.6051 13.6628C14.5396 14.5379 13.2006 15.0166 11.8185 15.0166C10.4364 15.0166 9.09745 14.5379 8.03195 13.6628C7.09545 12.7231 6.57007 11.4537 6.57007 10.131C6.57007 8.80815 7.09545 7.53884 8.03195 6.59907C9.09952 5.72849 10.4377 5.25269 11.8185 5.25269C13.1994 5.25269 14.5375 5.72849 15.6051 6.59907C16.52 7.54749 17.0308 8.81067 17.0308 10.1247C17.0308 11.4387 16.52 12.7019 15.6051 13.6503V13.6628ZM10.0262 12.0067C10.5207 12.4519 11.164 12.6985 11.8311 12.6985C12.4983 12.6985 13.1416 12.4519 13.6361 12.0067C14.0836 11.4952 14.3301 10.8402 14.3301 10.1623C14.3301 9.48445 14.0836 8.82944 13.6361 8.31796C13.1416 7.87273 12.4983 7.62614 11.8311 7.62614C11.164 7.62614 10.5207 7.87273 10.0262 8.31796C9.5787 8.82944 9.33223 9.48445 9.33223 10.1623C9.33223 10.8402 9.5787 11.4952 10.0262 12.0067Z" fill="#1E1B1B"/>
<path d="M28.7065 5.57001C28.9464 5.57001 29.06 5.69548 29.06 5.93387V14.9298C29.082 15.537 28.9677 16.1414 28.7254 16.6992C28.483 17.2569 28.1187 17.754 27.6589 18.1543C26.6383 19.0193 25.3259 19.4677 23.986 19.409C22.7757 19.4513 21.5816 19.1228 20.5654 18.468C20.1315 18.1847 19.7608 17.8158 19.4763 17.3841C19.1919 16.9524 18.9998 16.4672 18.9119 15.9586C18.9119 15.7077 18.912 15.5948 19.2527 15.5948H21.3732C21.4633 15.5978 21.5505 15.6267 21.6244 15.6779C21.6983 15.7291 21.7557 15.8005 21.7897 15.8834C21.9273 16.2644 22.2014 16.5816 22.5597 16.7742C22.9963 16.9981 23.4822 17.1102 23.9733 17.1004C24.2697 17.1165 24.5663 17.0738 24.8459 16.9747C25.1254 16.8756 25.3823 16.7221 25.6016 16.5232C25.8018 16.3152 25.9576 16.0689 26.0596 15.7994C26.1615 15.5299 26.2075 15.2426 26.1948 14.9549V14.1645C25.4356 14.7196 24.5115 15.0066 23.5694 14.98C22.9101 15.0038 22.2527 14.895 21.6367 14.66C21.0207 14.425 20.4588 14.0686 19.9848 13.6124C19.0748 12.6766 18.5662 11.426 18.5662 10.1244C18.5662 8.82292 19.0748 7.57229 19.9848 6.63648C20.4611 6.18427 21.0237 5.8314 21.6393 5.59869C22.2549 5.36597 22.9112 5.2581 23.5694 5.28144C24.5388 5.256 25.4877 5.56154 26.2579 6.14716V5.94641C26.2521 5.89833 26.2571 5.84956 26.2727 5.80366C26.2882 5.75776 26.3138 5.71587 26.3476 5.68103C26.3815 5.64619 26.4227 5.61928 26.4683 5.60225C26.5139 5.58522 26.5628 5.57849 26.6113 5.58256L28.7065 5.57001ZM23.8092 12.7467C24.1344 12.7567 24.4578 12.6956 24.7566 12.5677C25.0554 12.4398 25.3223 12.2482 25.5384 12.0064C25.9581 11.4678 26.1858 10.8058 26.1858 10.1244C26.1858 9.44314 25.9581 8.78114 25.5384 8.24245C25.3231 8.00398 25.0578 7.81526 24.7613 7.68955C24.4647 7.56383 24.1441 7.50416 23.8219 7.51474C23.4929 7.50446 23.1657 7.56534 22.8628 7.69315C22.5599 7.82096 22.2885 8.01266 22.0674 8.25499C21.6026 8.77028 21.3581 9.4454 21.3858 10.137C21.3631 10.8218 21.6021 11.4898 22.0548 12.0064C22.2764 12.2481 22.5479 12.4394 22.8507 12.5671C23.1535 12.6949 23.4804 12.7561 23.8092 12.7467Z" fill="#1E1B1B"/>
<path d="M39.9527 13.6626C38.8851 14.5332 37.547 15.009 36.1661 15.009C34.7853 15.009 33.4471 14.5332 32.3795 13.6626C31.4638 12.7121 30.9526 11.4468 30.9526 10.1307C30.9526 8.81461 31.4638 7.54934 32.3795 6.59881C33.4481 5.73047 34.7859 5.2561 36.1661 5.2561C37.5463 5.2561 38.8841 5.73047 39.9527 6.59881C40.8676 7.54724 41.3784 8.81042 41.3784 10.1244C41.3784 11.4384 40.8676 12.7016 39.9527 13.65V13.6626ZM34.3612 12.0064C34.6032 12.2352 34.8884 12.4141 35.2004 12.5325C35.5124 12.651 35.8449 12.7067 36.1787 12.6965C36.5104 12.705 36.8406 12.6485 37.1503 12.5301C37.46 12.4117 37.7432 12.2337 37.9837 12.0064C38.4239 11.4915 38.6656 10.8378 38.6656 10.1621C38.6656 9.48633 38.4239 8.83261 37.9837 8.31771C37.7432 8.09041 37.46 7.91247 37.1503 7.79406C36.8406 7.67565 36.5104 7.6191 36.1787 7.62764C35.8449 7.61743 35.5124 7.67317 35.2004 7.79162C34.8884 7.91007 34.6032 8.08889 34.3612 8.31771C33.921 8.83261 33.6793 9.48633 33.6793 10.1621C33.6793 10.8378 33.921 11.4915 34.3612 12.0064Z" fill="#1E1B1B"/>
<path d="M45.9355 3.43729C45.6018 3.72759 45.1735 3.88761 44.7301 3.88761C44.2867 3.88761 43.8583 3.72759 43.5247 3.43729C43.3734 3.29538 43.2529 3.12425 43.1705 2.9344C43.0881 2.74454 43.0457 2.53995 43.0457 2.33319C43.0457 2.12643 43.0881 1.92184 43.1705 1.73199C43.2529 1.54213 43.3734 1.371 43.5247 1.22908C43.8618 0.946046 44.2888 0.790771 44.7301 0.790771C45.1713 0.790771 45.5984 0.946046 45.9355 1.22908C46.0867 1.371 46.2073 1.54213 46.2896 1.73199C46.372 1.92184 46.4145 2.12643 46.4145 2.33319C46.4145 2.53995 46.372 2.74454 46.2896 2.9344C46.2073 3.12425 46.0867 3.29538 45.9355 3.43729ZM46.2005 15.0053C45.4502 15.0419 44.7089 14.8301 44.0927 14.4031C43.8398 14.2111 43.6368 13.9617 43.5006 13.6757C43.3645 13.3898 43.2992 13.0756 43.3101 12.7595V5.93408C43.304 5.88484 43.3092 5.83485 43.3254 5.78793C43.3417 5.74101 43.3684 5.69838 43.4037 5.6633C43.439 5.62821 43.4819 5.60159 43.5291 5.58546C43.5763 5.56934 43.6266 5.56412 43.6761 5.57023H45.7966C46.0364 5.57023 46.15 5.69569 46.15 5.93408V11.8561C46.15 12.3329 46.3646 12.5713 46.7938 12.5713C46.9852 12.5781 47.1765 12.557 47.3617 12.5085C47.6142 12.5085 47.753 12.5838 47.7656 12.8096L47.955 14.378C47.9641 14.4237 47.9632 14.4708 47.9524 14.5162C47.9417 14.5616 47.9212 14.6041 47.8925 14.641C47.8638 14.6778 47.8275 14.7081 47.786 14.7299C47.7445 14.7516 47.6989 14.7642 47.652 14.7669C47.1835 14.9203 46.6938 15.0007 46.2005 15.0053Z" fill="#1E1B1B"/>
<path d="M55.7556 5.26905C56.418 5.24303 57.0788 5.34957 57.6989 5.58235C58.319 5.81512 58.8858 6.16938 59.3655 6.62409C60.258 7.57629 60.7543 8.8294 60.7543 10.1309C60.7543 11.4324 60.258 12.6855 59.3655 13.6377C58.8881 14.0964 58.322 14.4541 57.7016 14.6892C57.0811 14.9243 56.4191 15.0318 55.7556 15.0052C54.8104 15.0261 53.8842 14.7398 53.1177 14.1897V18.7191C53.1177 18.9574 52.9914 19.0704 52.7516 19.0704H50.6311C50.5828 19.0794 50.5329 19.0765 50.4859 19.062C50.4389 19.0475 50.3961 19.0219 50.3613 18.9873C50.3265 18.9527 50.3007 18.9102 50.2861 18.8635C50.2716 18.8167 50.2687 18.7672 50.2777 18.7191V8.43081C50.2926 8.33018 50.2836 8.22749 50.2514 8.13094C50.2192 8.03439 50.1648 7.94665 50.0924 7.87473C50.0201 7.80281 49.9318 7.7487 49.8347 7.71673C49.7376 7.68475 49.6343 7.67579 49.533 7.69056H49.1165C48.8388 7.69056 48.7 7.59018 48.7 7.38943V5.90893C48.6934 5.81732 48.7187 5.72625 48.7715 5.6509C48.8243 5.57556 48.9016 5.52049 48.9903 5.49489C49.4269 5.33713 49.889 5.26057 50.3535 5.26905C50.8167 5.22829 51.2815 5.32593 51.6886 5.54946C52.0956 5.77299 52.4262 6.11224 52.638 6.52372C53.0446 6.1149 53.5307 5.79279 54.0668 5.57707C54.6028 5.36134 55.1775 5.25654 55.7556 5.26905ZM53.7866 12.0066C54.0117 12.2404 54.282 12.4265 54.5814 12.5536C54.8807 12.6807 55.2029 12.7462 55.5284 12.7462C55.854 12.7462 56.1761 12.6807 56.4755 12.5536C56.7748 12.4265 57.0452 12.2404 57.2702 12.0066C57.7443 11.481 57.9934 10.7923 57.9645 10.087C57.9975 9.38101 57.7479 8.69079 57.2702 8.16733C57.0452 7.93353 56.7748 7.74746 56.4755 7.62034C56.1761 7.49323 55.854 7.42769 55.5284 7.42769C55.2029 7.42769 54.8807 7.49323 54.5814 7.62034C54.282 7.74746 54.0117 7.93353 53.7866 8.16733C53.3273 8.70004 53.0883 9.386 53.1177 10.087C53.092 10.7874 53.3306 11.472 53.7866 12.0066Z" fill="#1E1B1B"/>
<path d="M66.7111 15.0053C65.5781 15.0516 64.4545 14.7821 63.4673 14.2274C63.0712 13.9902 62.7339 13.6675 62.4804 13.283C62.227 12.8986 62.0638 12.4623 62.0032 12.0066C62.0032 11.7557 62.0915 11.6302 62.3692 11.6302H64.2246C64.3129 11.6337 64.3985 11.6612 64.472 11.7099C64.5455 11.7586 64.604 11.8266 64.6412 11.9063C64.9062 12.5838 65.6004 12.9225 66.7111 12.9225C67.0986 12.9401 67.4844 12.8626 67.8345 12.6967C67.9553 12.6425 68.0591 12.5566 68.1347 12.4483C68.2102 12.3401 68.2548 12.2134 68.2636 12.0819C68.2636 11.7557 68.0617 11.5299 67.6578 11.3793C67.1787 11.2208 66.6834 11.1156 66.181 11.0656C65.5859 10.9987 64.9956 10.8939 64.414 10.752C63.8483 10.6247 63.3339 10.3319 62.9372 9.91134C62.7036 9.6255 62.5316 9.29493 62.432 8.9402C62.3323 8.58546 62.3072 8.21415 62.3581 7.84935C62.409 7.48455 62.5349 7.13405 62.7279 6.81966C62.9209 6.50528 63.1769 6.23372 63.4799 6.02188C64.3897 5.44579 65.4571 5.16518 66.5344 5.2189C67.5775 5.18383 68.6095 5.4403 69.5132 5.95915C69.8774 6.16421 70.191 6.44743 70.4312 6.78819C70.6714 7.12895 70.8321 7.51867 70.9016 7.92897C70.9016 8.1799 70.788 8.30537 70.5608 8.30537H68.6928C68.6141 8.31 68.5359 8.29092 68.4683 8.25063C68.4008 8.21033 68.347 8.15069 68.3141 8.07953C68.1893 7.78236 67.9543 7.54427 67.6578 7.41456C67.3233 7.24059 66.9497 7.15423 66.5723 7.16363C66.2023 7.14362 65.8332 7.21699 65.4994 7.37692C65.3818 7.42202 65.2805 7.5011 65.2085 7.60396C65.1365 7.70683 65.0972 7.82877 65.0955 7.95407C65.1036 8.12564 65.1668 8.29012 65.2758 8.42336C65.3849 8.5566 65.534 8.65156 65.7014 8.69432C66.1861 8.87591 66.69 9.00218 67.2034 9.07072C67.7937 9.14793 68.3794 9.25682 68.9578 9.39693C69.5235 9.5242 70.0379 9.817 70.4346 10.2376C70.6468 10.4692 70.8108 10.7404 70.9169 11.0355C71.0231 11.3305 71.0693 11.6435 71.0531 11.9564C71.064 12.3902 70.9615 12.8193 70.7558 13.2019C70.5501 13.5845 70.2481 13.9076 69.8792 14.1396C68.9362 14.7413 67.8311 15.0433 66.7111 15.0053Z" fill="#1E1B1B"/>
<path d="M84.3946 14.3778C84.4017 14.4224 84.3998 14.4679 84.389 14.5117C84.3782 14.5555 84.3587 14.5968 84.3317 14.633C84.3047 14.6692 84.2706 14.6997 84.2315 14.7227C84.1925 14.7457 84.1492 14.7606 84.1043 14.7668C83.6434 14.9163 83.1627 14.9967 82.678 15.0051C82.1983 15.0545 81.7139 14.98 81.2716 14.7888C80.8294 14.5975 80.4443 14.2961 80.1536 13.9136C79.262 14.6756 78.1092 15.0665 76.935 15.0051C76.3898 15.0301 75.8454 14.9414 75.3368 14.7448C74.8281 14.5482 74.3665 14.2479 73.9815 13.8634C73.5992 13.4605 73.3027 12.985 73.1096 12.4654C72.9166 11.9458 72.8311 11.3929 72.8582 10.8397V5.93392C72.8582 5.69554 72.9718 5.57007 73.2116 5.57007H75.3321C75.5719 5.57007 75.6855 5.69554 75.6855 5.93392V10.4633C75.6624 11.0276 75.8565 11.5794 76.2282 12.0065C76.4137 12.2022 76.6393 12.356 76.8897 12.4577C77.14 12.5595 77.4094 12.6067 77.6797 12.5962C77.9564 12.6082 78.2326 12.5656 78.4926 12.4709C78.7526 12.3761 78.9911 12.2311 79.1943 12.0441C79.3867 11.8471 79.5363 11.613 79.634 11.3561C79.7317 11.0993 79.7754 10.8253 79.7623 10.5511V5.93392C79.7623 5.69554 79.8759 5.57007 80.1157 5.57007H82.2615C82.5013 5.57007 82.6149 5.69554 82.6149 5.93392V11.8434C82.6149 12.3327 82.8294 12.5711 83.246 12.5711C83.4415 12.5786 83.6372 12.5575 83.8266 12.5084C83.8743 12.4951 83.9244 12.4927 83.9732 12.5014C84.022 12.5101 84.0681 12.5297 84.1082 12.5586C84.1483 12.5876 84.1812 12.6252 84.2046 12.6687C84.228 12.7121 84.2411 12.7603 84.2431 12.8095L84.3946 14.3778Z" fill="#1E1B1B"/>
<path d="M104.451 14.3779C104.462 14.4229 104.463 14.4697 104.454 14.5151C104.445 14.5605 104.426 14.6033 104.398 14.6405C104.37 14.6777 104.334 14.7083 104.293 14.7302C104.252 14.752 104.207 14.7645 104.16 14.7669C103.691 14.9185 103.202 14.9989 102.709 15.0053C101.958 15.0438 101.216 14.8318 100.601 14.403C100.335 14.2194 100.118 13.9733 99.9709 13.6866C99.8234 13.3999 99.7493 13.0814 99.7552 12.7594V9.81096C99.7818 9.24833 99.5923 8.69669 99.2251 8.26772C99.048 8.07162 98.8294 7.91702 98.5849 7.81505C98.3405 7.71307 98.0763 7.66628 97.8115 7.67803C97.5728 7.66906 97.3351 7.71409 97.1165 7.80972C96.8978 7.90535 96.7039 8.04909 96.5493 8.23008C96.2161 8.65051 96.0459 9.17589 96.0696 9.71058V14.3403C96.0696 14.5787 95.956 14.7042 95.7162 14.7042H93.5831C93.5336 14.7103 93.4833 14.705 93.4361 14.6889C93.3889 14.6728 93.346 14.6462 93.3107 14.6111C93.2754 14.576 93.2486 14.5334 93.2324 14.4864C93.2162 14.4395 93.211 14.3895 93.2171 14.3403V9.81096C93.2447 9.25449 93.0699 8.70674 92.7248 8.26772C92.5709 8.08331 92.3781 7.93486 92.1599 7.83294C91.9418 7.73102 91.7037 7.67813 91.4626 7.67803C91.2052 7.6677 90.9484 7.71154 90.7091 7.80667C90.4699 7.9018 90.2535 8.04609 90.0742 8.23008C89.7132 8.63709 89.5274 9.16874 89.5567 9.71058V14.3403C89.5629 14.3895 89.5576 14.4395 89.5414 14.4864C89.5252 14.5334 89.4984 14.576 89.4631 14.6111C89.4278 14.6462 89.3849 14.6728 89.3377 14.6889C89.2905 14.705 89.2402 14.7103 89.1907 14.7042H87.1333C86.8935 14.7042 86.7799 14.5787 86.7799 14.3403V8.43083C86.7948 8.3302 86.7858 8.22751 86.7536 8.13096C86.7214 8.03441 86.667 7.94667 86.5946 7.87475C86.5223 7.80283 86.434 7.74873 86.3369 7.71675C86.2398 7.68477 86.1365 7.67581 86.0352 7.69058H85.6187C85.341 7.69058 85.2022 7.5902 85.2022 7.38945V5.90895C85.1956 5.81734 85.2209 5.72627 85.2737 5.65092C85.3265 5.57558 85.4038 5.52051 85.4925 5.49491C85.9291 5.33715 86.3912 5.26059 86.8557 5.26907C87.3015 5.23132 87.7491 5.31966 88.1466 5.5239C88.5441 5.72814 88.8755 6.03996 89.1023 6.42336C89.5282 6.02217 90.0326 5.7126 90.5843 5.51399C91.1359 5.31538 91.7228 5.232 92.3083 5.26907C92.877 5.24148 93.4442 5.34751 93.9639 5.57859C94.4837 5.80966 94.9413 6.15925 95.2997 6.59901C95.7174 6.14773 96.2308 5.79432 96.8027 5.56432C97.3746 5.33432 97.9907 5.23347 98.6066 5.26907C99.1576 5.24345 99.7079 5.33168 100.223 5.5282C100.738 5.72472 101.206 6.02526 101.598 6.41082C101.982 6.81291 102.279 7.28827 102.472 7.80805C102.665 8.32783 102.75 8.8812 102.721 9.43456V11.8561C102.721 12.3328 102.936 12.5712 103.34 12.5712C103.535 12.5803 103.731 12.5591 103.92 12.5085C104.181 12.5085 104.32 12.6089 104.337 12.8096L104.451 14.3779Z" fill="#1E1B1B"/>
</svg>
