<svg width="116" height="23" viewBox="0 0 116 23" fill="none" xmlns="http://www.w3.org/2000/svg">
<path d="M0.456055 1.27167H4.52947V17.7392H0.456055V1.27167ZM6.15376 11.5449C6.15376 7.46598 8.69171 5.0212 12.4986 5.0212C16.3056 5.0212 18.8435 7.46598 18.8435 11.5449C18.8435 15.6237 16.3944 18.0938 12.4986 18.0938C8.60288 18.0938 6.15376 15.7124 6.15376 11.5449ZM14.8082 11.5449C14.8082 9.30274 13.9326 7.98534 12.5367 7.98534C11.1408 7.98534 10.2779 9.25207 10.2779 11.5449C10.2779 13.8376 11.1408 15.0917 12.5367 15.0917C13.9326 15.0917 14.8335 13.8376 14.8335 11.5575L14.8082 11.5449ZM20.4678 18.5879H24.4016C24.5807 19.0106 24.8935 19.3633 25.2922 19.592C25.6908 19.8207 26.1536 19.913 26.6097 19.8546C28.1705 19.8546 28.9826 19.0186 28.9826 17.7772V15.497H28.9953C28.6592 16.207 28.1156 16.7988 27.4361 17.1945C26.7566 17.5902 25.973 17.7712 25.1884 17.7138C22.2063 17.7138 20.2267 15.4464 20.2267 11.5449C20.2267 7.64332 22.1175 5.2112 25.3026 5.2112C26.1073 5.16823 26.9055 5.3754 27.5873 5.80418C28.2691 6.23296 28.8009 6.86223 29.1095 7.60532H28.9953V5.31254H33.0307V17.6505C33.0307 20.6273 30.3912 22.4894 26.5081 22.4894C22.9804 22.4767 20.7216 20.868 20.4932 18.6005L20.4678 18.5879ZM28.9953 11.5449C28.9953 9.55608 28.0817 8.30203 26.635 8.30203C25.1884 8.30203 24.3001 9.56875 24.3001 11.5449C24.3001 13.5209 25.1757 14.6863 26.635 14.6863C28.0944 14.6863 28.9953 13.6096 28.9953 11.5449ZM34.6423 11.5449C34.6423 7.46598 37.1802 5.0212 40.9871 5.0212C44.7941 5.0212 47.332 7.46598 47.332 11.5449C47.332 15.6237 44.8702 18.0938 40.9871 18.0938C37.1041 18.0938 34.6676 15.7124 34.6676 11.5449H34.6423ZM43.2967 11.5449C43.2967 9.30274 42.4084 7.98534 41.0252 7.98534C39.642 7.98534 38.7664 9.25207 38.7664 11.5449C38.7664 13.8376 39.6293 15.0917 41.0252 15.0917C42.4211 15.0917 43.3221 13.8376 43.3221 11.5575L43.2967 11.5449ZM48.9817 2.3104C48.964 1.8962 49.0708 1.48618 49.2884 1.13309C49.5061 0.779993 49.8246 0.499972 50.2029 0.329054C50.5813 0.158135 51.0022 0.104136 51.4116 0.173998C51.821 0.243861 52.2001 0.434391 52.5001 0.721079C52.8001 1.00777 53.0073 1.3775 53.095 1.78271C53.1828 2.18792 53.1471 2.61008 52.9925 2.99488C52.838 3.37967 52.5716 3.7095 52.2277 3.94194C51.8838 4.17437 51.4781 4.29878 51.0628 4.29916C50.7974 4.30589 50.5333 4.25993 50.2858 4.16395C50.0383 4.06797 49.8124 3.92388 49.6212 3.74004C49.4299 3.55621 49.2771 3.33629 49.1717 3.09304C49.0663 2.8498 49.0103 2.58807 49.0071 2.32306L48.9817 2.3104ZM48.9817 5.29987H53.1059V17.7898H49.0451L48.9817 5.29987ZM67.9402 11.5449C67.9402 15.6111 66.1129 17.9672 63.0039 17.9672C62.2079 18.0162 61.4161 17.8202 60.7353 17.4056C60.0545 16.9911 59.5175 16.3779 59.197 15.6491H59.1208V21.8054H55.0474V5.33788H59.0954V7.56732H59.1716C59.4812 6.82408 60.0129 6.19421 60.6941 5.76352C61.3753 5.33283 62.173 5.12228 62.9785 5.16054C66.1763 5.1352 68.0163 7.47865 68.0163 11.5575L67.9402 11.5449ZM63.7906 11.5449C63.7906 9.56875 62.8643 8.28936 61.4303 8.28936C59.9964 8.28936 59.0954 9.55608 59.0827 11.5449C59.07 13.5336 59.9964 14.7877 61.4303 14.7877C62.8643 14.7877 63.8668 13.6096 63.8668 11.5575L63.7906 11.5449ZM74.8942 5.00853C78.3077 5.00853 80.4269 6.61727 80.4523 9.2014H76.7342C76.7342 8.30202 75.9855 7.74466 74.8688 7.74466C73.7521 7.74466 73.2191 8.17535 73.2191 8.82139C73.2191 9.46742 73.6887 9.67009 74.6277 9.8601L77.2418 10.3921C79.7797 10.9242 80.7949 11.9375 80.7949 13.825C80.7949 16.3584 78.4473 18.0812 74.9576 18.0812C71.4679 18.0812 69.1965 16.4091 69.0315 13.863H72.978C73.0922 14.7877 73.8282 15.3324 75.0211 15.3324C76.2139 15.3324 76.7723 14.9524 76.7723 14.281C76.7723 13.6096 76.3916 13.4956 75.4145 13.2929L73.0542 12.7989C70.605 12.2796 69.3234 11.0002 69.3234 9.0874C69.3995 6.60461 71.5314 5.0212 74.9703 5.0212L74.8942 5.00853ZM94.4364 17.7772H90.4899V15.4337H90.4137C90.1928 16.2154 89.7117 16.8985 89.0496 17.3706C88.3876 17.8427 87.5842 18.0754 86.7718 18.0305C86.1585 18.0504 85.5478 17.9407 84.98 17.7084C84.4121 17.4762 83.8999 17.1267 83.4769 16.6829C83.0539 16.2391 82.7297 15.7111 82.5255 15.1334C82.3214 14.5557 82.2419 13.9414 82.2923 13.3309V5.31254H86.3657V12.4569C86.3657 13.9263 87.1398 14.7243 88.4088 14.7243C88.7065 14.7221 89.0003 14.6561 89.2702 14.5309C89.5402 14.4056 89.7802 14.224 89.9738 13.9982C90.1675 13.7725 90.3104 13.5079 90.3928 13.2224C90.4753 12.9368 90.4954 12.6369 90.4518 12.3429V5.31254H94.5126L94.4364 17.7772ZM96.4033 5.29987H100.363V7.70666H100.451C100.67 6.93566 101.139 6.25881 101.784 5.78206C102.429 5.3053 103.215 5.05554 104.017 5.07186C104.823 5.00194 105.626 5.23452 106.269 5.72414C106.912 6.21375 107.349 6.92518 107.494 7.71933H107.672C107.925 6.92094 108.436 6.22855 109.125 5.74978C109.813 5.27102 110.641 5.03269 111.479 5.07186C112.036 5.0507 112.591 5.1472 113.108 5.35505C113.625 5.5629 114.093 5.87741 114.479 6.278C114.866 6.67859 115.164 7.15622 115.353 7.67965C115.543 8.20307 115.619 8.76049 115.578 9.31541V17.7898H111.479V10.3541C111.479 9.0874 110.882 8.37803 109.728 8.37803C109.471 8.37383 109.217 8.42497 108.983 8.52794C108.749 8.6309 108.539 8.78326 108.369 8.97457C108.199 9.16588 108.073 9.39161 107.998 9.63629C107.924 9.88096 107.904 10.1388 107.938 10.3921V17.7898H104.055V10.3161C104.055 9.0494 103.433 8.37803 102.317 8.37803C102.058 8.37597 101.802 8.4292 101.565 8.53415C101.329 8.63909 101.117 8.79331 100.946 8.98647C100.774 9.17963 100.645 9.40726 100.569 9.65407C100.492 9.90088 100.47 10.1612 100.502 10.4175V17.7898H96.4287L96.4033 5.29987Z" fill="#1E1B1B"/>
</svg>
