<svg width="126" height="24" viewBox="0 0 126 24" fill="none" xmlns="http://www.w3.org/2000/svg">
<path d="M0.197021 0.0290527H4.00396V18.5076H0.197021V0.0290527Z" fill="#1E1B1B"/>
<path d="M6.13561 12.1774C6.13563 10.848 6.52734 9.54843 7.26108 8.44356C7.99482 7.33869 9.03756 6.47822 10.2571 5.97122C11.4767 5.46423 12.8182 5.33353 14.1115 5.59571C15.4049 5.85788 16.5919 6.50112 17.522 7.44388C18.4522 8.38665 19.0837 9.58649 19.3365 10.8913C19.5892 12.1962 19.4518 13.5473 18.9417 14.7733C18.4317 15.9994 17.5718 17.0453 16.4713 17.7783C15.3707 18.5114 14.0789 18.8987 12.7597 18.8911C11.8847 18.898 11.0171 18.7288 10.2078 18.3933C9.3986 18.0579 8.66395 17.563 8.04699 16.9377C7.43002 16.3124 6.94316 15.5692 6.61494 14.7518C6.28672 13.9344 6.12376 13.0592 6.13561 12.1774ZM15.6783 12.1774C15.6633 11.6043 15.481 11.0483 15.1541 10.579C14.8272 10.1097 14.3703 9.74801 13.8405 9.53905C13.3107 9.33009 12.7315 9.28318 12.1754 9.4042C11.6192 9.52521 11.1109 9.80878 10.7138 10.2194C10.3168 10.6301 10.0487 11.1496 9.94306 11.713C9.83745 12.2764 9.89902 12.8586 10.1201 13.3869C10.3411 13.9152 10.7118 14.3662 11.1858 14.6833C11.6598 15.0004 12.2161 15.1696 12.785 15.1698C13.1724 15.1774 13.5572 15.1044 13.9153 14.9554C14.2734 14.8064 14.5971 14.5845 14.8663 14.3036C15.1355 14.0228 15.3442 13.689 15.4796 13.3232C15.6149 12.9573 15.6739 12.5673 15.6529 12.1774H15.6783Z" fill="#1E1B1B"/>
<path d="M34.4466 5.84765V17.8811C34.4466 22.1267 31.1473 23.9298 27.8099 23.9298C26.6327 24.0272 25.452 23.7915 24.4005 23.2492C23.349 22.707 22.4686 21.8798 21.8584 20.8607L25.0689 18.9936C25.3291 19.5222 25.7429 19.9584 26.2553 20.244C26.7676 20.5295 27.3542 20.651 27.9368 20.5921C28.3079 20.6382 28.6846 20.6011 29.0398 20.4834C29.3951 20.3657 29.7201 20.1703 29.9917 19.9113C30.2633 19.6523 30.4747 19.336 30.6109 18.985C30.747 18.634 30.8045 18.2571 30.7793 17.8811V16.7174C30.3363 17.2587 29.7742 17.6884 29.1376 17.9726C28.501 18.2567 27.8074 18.3874 27.112 18.3543C25.4292 18.3543 23.8154 17.6806 22.6255 16.4815C21.4356 15.2824 20.7671 13.6561 20.7671 11.9603C20.7671 10.2645 21.4356 8.63817 22.6255 7.43907C23.8154 6.23997 25.4292 5.56632 27.112 5.56632C27.8074 5.53318 28.501 5.66385 29.1376 5.94799C29.7742 6.23213 30.3363 6.66189 30.7793 7.20317V5.92438L34.4466 5.84765ZM30.7793 11.9219C30.8046 11.3101 30.6477 10.7046 30.3289 10.1834C30.01 9.66215 29.5437 9.24895 28.9899 8.99692C28.4361 8.7449 27.8201 8.66558 27.2212 8.76917C26.6223 8.87275 26.0679 9.1545 25.6292 9.57818C25.1905 10.0019 24.8876 10.5481 24.7594 11.1467C24.6312 11.7453 24.6837 12.3688 24.91 12.9371C25.1363 13.5054 25.5261 13.9925 26.0293 14.3357C26.5325 14.6789 27.1261 14.8626 27.7338 14.8631C28.1303 14.8919 28.5283 14.8366 28.9023 14.7007C29.2763 14.5648 29.6178 14.3514 29.9048 14.0742C30.1918 13.797 30.4179 13.4622 30.5685 13.0915C30.7192 12.7208 30.791 12.3223 30.7793 11.9219Z" fill="#1E1B1B"/>
<path d="M36.591 12.1775C36.591 10.8491 36.9821 9.55062 37.7147 8.44629C38.4473 7.34195 39.4885 6.48146 40.7066 5.97369C41.9247 5.46593 43.2649 5.33372 44.5575 5.59381C45.8502 5.8539 47.0373 6.49459 47.9685 7.43479C48.8997 8.37499 49.5332 9.57245 49.7888 10.8756C50.0444 12.1788 49.9107 13.5291 49.4045 14.7556C48.8983 15.9822 48.0424 17.0298 46.9452 17.766C45.8479 18.5021 44.5586 18.8937 43.2404 18.8912C42.3638 18.8998 41.4943 18.7319 40.6829 18.3974C39.8714 18.0628 39.1344 17.5684 38.5151 16.9431C37.8958 16.3178 37.4066 15.5742 37.0762 14.7559C36.7458 13.9375 36.5808 13.0609 36.591 12.1775ZM46.1337 12.1775C46.1187 11.6038 45.9361 11.0474 45.6086 10.5778C45.2812 10.1083 44.8235 9.74657 44.2929 9.538C43.7624 9.32943 43.1826 9.28328 42.6261 9.40533C42.0696 9.52739 41.5613 9.81222 41.1648 10.2241C40.7683 10.6361 40.5012 11.1567 40.397 11.721C40.2928 12.2852 40.3562 12.8678 40.5792 13.3959C40.8022 13.924 41.1748 14.374 41.6505 14.6896C42.1262 15.0051 42.6837 15.1722 43.2531 15.1699C43.6405 15.1775 44.0253 15.1045 44.3834 14.9555C44.7415 14.8065 45.0652 14.5846 45.3344 14.3037C45.6036 14.0229 45.8123 13.6891 45.9477 13.3233C46.083 12.9574 46.142 12.5674 46.121 12.1775H46.1337Z" fill="#1E1B1B"/>
<path d="M51.6538 2.45863C51.6538 2.00843 51.7863 1.56834 52.0345 1.19401C52.2827 0.81968 52.6354 0.527927 53.0482 0.355643C53.4609 0.183359 53.9151 0.138282 54.3532 0.226112C54.7914 0.313942 55.1939 0.530734 55.5098 0.849074C55.8257 1.16741 56.0408 1.573 56.1279 2.01455C56.2151 2.4561 56.1704 2.91378 55.9994 3.32971C55.8284 3.74564 55.5389 4.10115 55.1675 4.35126C54.796 4.60138 54.3593 4.73488 53.9126 4.73488C53.3156 4.72823 52.7449 4.48628 52.3227 4.06083C51.9005 3.63538 51.6604 3.06027 51.6538 2.45863ZM52.0218 5.84743H55.8287V18.5075H52.0218V5.84743Z" fill="#1E1B1B"/>
<path d="M72.1224 12.1777C72.1651 13.0196 72.0421 13.8618 71.7606 14.6557C71.479 15.4495 71.0444 16.1795 70.4819 16.8035C69.9193 17.4274 69.2398 17.9331 68.4826 18.2915C67.7253 18.6498 66.9052 18.8536 66.0694 18.8913C65.3602 18.9389 64.6495 18.8244 63.9903 18.5565C63.3311 18.2886 62.7405 17.8741 62.2625 17.344V23.5973H58.4556V5.84763H62.2625V7.03691C62.7411 6.50838 63.3322 6.0958 63.9915 5.83005C64.6507 5.56431 65.3611 5.45228 66.0694 5.50236C66.9018 5.54013 67.7187 5.74276 68.4734 6.09867C69.228 6.45458 69.9058 6.95681 70.4678 7.57667C71.0299 8.19653 71.4654 8.92189 71.7492 9.71133C72.0331 10.5008 72.16 11.3388 72.1224 12.1777ZM68.3155 12.1777C68.3005 11.5837 68.1119 11.0075 67.7733 10.5211C67.4347 10.0347 66.9611 9.6599 66.412 9.44359C65.8629 9.22728 65.2627 9.17911 64.6865 9.30512C64.1104 9.43112 63.5839 9.72571 63.1732 10.1519C62.7625 10.5782 62.4857 11.1171 62.3777 11.7012C62.2696 12.2852 62.335 12.8884 62.5656 13.4352C62.7963 13.982 63.182 14.448 63.6744 14.7748C64.1667 15.1016 64.7439 15.2747 65.3334 15.2723C65.7372 15.2896 66.1401 15.2207 66.5157 15.07C66.8912 14.9194 67.2309 14.6905 67.5125 14.3982C67.794 14.106 68.0111 13.7572 68.1495 13.3745C68.2879 12.9918 68.3445 12.5839 68.3155 12.1777Z" fill="#1E1B1B"/>
<path d="M83.7082 14.7097C83.7082 17.6253 81.1703 18.8658 78.4801 18.8658C77.3828 18.9653 76.2812 18.7309 75.3175 18.1929C74.3538 17.6549 73.5724 16.838 73.0742 15.8478L76.3482 13.9808C76.4779 14.4371 76.7591 14.8347 77.1449 15.107C77.5306 15.3794 77.9975 15.51 78.4674 15.477C79.3683 15.477 79.8252 15.1956 79.8252 14.6841C79.8252 13.2902 73.6453 14.0319 73.6453 9.64568C73.6453 6.88348 75.9548 5.50238 78.5689 5.50238C79.5625 5.45755 80.5497 5.68473 81.4255 6.15981C82.3014 6.63489 83.0332 7.34013 83.5433 8.20064L80.2693 9.9398C80.1247 9.60989 79.8883 9.32926 79.5888 9.13182C79.2893 8.93439 78.9395 8.8286 78.5816 8.82725C77.9217 8.82725 77.5283 9.08301 77.5283 9.53058C77.5283 10.9884 83.7082 10.0293 83.7082 14.7097Z" fill="#1E1B1B"/>
<path d="M97.502 5.84766V18.5077H93.6951V17.3184C93.2626 17.8449 92.7135 18.2615 92.0919 18.5347C91.4703 18.8079 90.7936 18.9301 90.1166 18.8913C87.5786 18.8913 85.4087 17.0627 85.4087 13.6483V5.84766H89.2156V13.0728C89.1857 13.3749 89.2212 13.6799 89.3197 13.9668C89.4181 14.2537 89.5772 14.5156 89.786 14.7345C89.9947 14.9533 90.2481 15.1239 90.5287 15.2345C90.8092 15.345 91.1102 15.3928 91.4109 15.3747C92.7814 15.3747 93.7458 14.5562 93.7458 12.8171V5.84766H97.502Z" fill="#1E1B1B"/>
<path d="M119.074 10.7325V18.5076H115.267V11.065C115.267 9.78623 114.671 8.99338 113.465 8.99338C112.26 8.99338 111.498 9.87575 111.498 11.3719V18.5076H107.692V11.065C107.692 9.78623 107.095 8.99338 105.89 8.99338C104.684 8.99338 103.923 9.87575 103.923 11.3719V18.5076H100.116V5.84755H103.923V7.01125C104.317 6.49712 104.832 6.08998 105.421 5.82654C106.01 5.5631 106.655 5.45165 107.298 5.50227C107.942 5.46844 108.583 5.60389 109.16 5.89534C109.736 6.1868 110.227 6.62423 110.585 7.16471C111.003 6.60004 111.556 6.15139 112.193 5.86067C112.83 5.56995 113.53 5.44664 114.227 5.50227C117.196 5.50227 119.074 7.57392 119.074 10.7325Z" fill="#1E1B1B"/>
<path d="M122.272 5.77074C123.814 5.77074 125.064 4.51116 125.064 2.95739C125.064 1.40362 123.814 0.144043 122.272 0.144043C120.731 0.144043 119.481 1.40362 119.481 2.95739C119.481 4.51116 120.731 5.77074 122.272 5.77074Z" fill="#1E1B1B"/>
</svg>
